<svg id="_0001_analysis" xmlns="http://www.w3.org/2000/svg" xmlns:xlink="http://www.w3.org/1999/xlink" viewBox="0 0 500 500" data-imageid="coffee-lover-58" imageName="Coffee Lover" class="illustrations_image" style="width: 166px;"><defs><style>.cls-1_coffee-lover-58{fill:none;}.cls-1_coffee-lover-58,.cls-2_coffee-lover-58,.cls-3_coffee-lover-58,.cls-4_coffee-lover-58,.cls-5_coffee-lover-58,.cls-6_coffee-lover-58,.cls-7_coffee-lover-58,.cls-8_coffee-lover-58,.cls-9_coffee-lover-58,.cls-10_coffee-lover-58,.cls-11_coffee-lover-58,.cls-12_coffee-lover-58,.cls-13_coffee-lover-58,.cls-14_coffee-lover-58,.cls-15_coffee-lover-58,.cls-16_coffee-lover-58,.cls-17_coffee-lover-58,.cls-18_coffee-lover-58,.cls-19_coffee-lover-58,.cls-20_coffee-lover-58,.cls-21_coffee-lover-58,.cls-22_coffee-lover-58,.cls-23_coffee-lover-58,.cls-24_coffee-lover-58,.cls-25_coffee-lover-58,.cls-26_coffee-lover-58,.cls-27_coffee-lover-58,.cls-28_coffee-lover-58,.cls-29_coffee-lover-58,.cls-30_coffee-lover-58,.cls-31_coffee-lover-58,.cls-32_coffee-lover-58,.cls-33_coffee-lover-58,.cls-34_coffee-lover-58,.cls-35_coffee-lover-58,.cls-36_coffee-lover-58,.cls-37_coffee-lover-58,.cls-38_coffee-lover-58,.cls-39_coffee-lover-58,.cls-40_coffee-lover-58,.cls-41_coffee-lover-58,.cls-42_coffee-lover-58,.cls-43_coffee-lover-58,.cls-44_coffee-lover-58,.cls-45_coffee-lover-58,.cls-46_coffee-lover-58,.cls-47_coffee-lover-58,.cls-48_coffee-lover-58,.cls-49_coffee-lover-58,.cls-50_coffee-lover-58,.cls-51_coffee-lover-58,.cls-52_coffee-lover-58,.cls-53_coffee-lover-58,.cls-54_coffee-lover-58,.cls-55_coffee-lover-58,.cls-56_coffee-lover-58{stroke-width:0px;}.cls-2_coffee-lover-58{fill:url(#linear-gradient);}.cls-3_coffee-lover-58{fill:url(#linear-gradient-38-coffee-lover-58);}.cls-4_coffee-lover-58{fill:url(#linear-gradient-33-coffee-lover-58);}.cls-5_coffee-lover-58{fill:url(#linear-gradient-29-coffee-lover-58);}.cls-6_coffee-lover-58{fill:url(#linear-gradient-32-coffee-lover-58);}.cls-7_coffee-lover-58{fill:url(#linear-gradient-30-coffee-lover-58);}.cls-8_coffee-lover-58{fill:url(#linear-gradient-31-coffee-lover-58);}.cls-9_coffee-lover-58{fill:url(#linear-gradient-36-coffee-lover-58);}.cls-10_coffee-lover-58{fill:url(#linear-gradient-39-coffee-lover-58);}.cls-11_coffee-lover-58{fill:url(#linear-gradient-34-coffee-lover-58);}.cls-12_coffee-lover-58{fill:url(#linear-gradient-37-coffee-lover-58);}.cls-13_coffee-lover-58{fill:url(#linear-gradient-35-coffee-lover-58);}.cls-14_coffee-lover-58{fill:url(#linear-gradient-28-coffee-lover-58);}.cls-15_coffee-lover-58{fill:url(#linear-gradient-25-coffee-lover-58);}.cls-16_coffee-lover-58{fill:url(#linear-gradient-11-coffee-lover-58);}.cls-17_coffee-lover-58{fill:url(#linear-gradient-12-coffee-lover-58);}.cls-18_coffee-lover-58{fill:url(#linear-gradient-13-coffee-lover-58);}.cls-19_coffee-lover-58{fill:url(#linear-gradient-10-coffee-lover-58);}.cls-20_coffee-lover-58{fill:url(#linear-gradient-17-coffee-lover-58);}.cls-21_coffee-lover-58{fill:url(#linear-gradient-16-coffee-lover-58);}.cls-22_coffee-lover-58{fill:url(#linear-gradient-19-coffee-lover-58);}.cls-23_coffee-lover-58{fill:url(#linear-gradient-15-coffee-lover-58);}.cls-24_coffee-lover-58{fill:url(#linear-gradient-23-coffee-lover-58);}.cls-25_coffee-lover-58{fill:url(#linear-gradient-21-coffee-lover-58);}.cls-26_coffee-lover-58{fill:url(#linear-gradient-18-coffee-lover-58);}.cls-27_coffee-lover-58{fill:url(#linear-gradient-14-coffee-lover-58);}.cls-28_coffee-lover-58{fill:url(#linear-gradient-22-coffee-lover-58);}.cls-29_coffee-lover-58{fill:url(#linear-gradient-20-coffee-lover-58);}.cls-30_coffee-lover-58{fill:url(#linear-gradient-27-coffee-lover-58);}.cls-31_coffee-lover-58{fill:url(#linear-gradient-24-coffee-lover-58);}.cls-32_coffee-lover-58{fill:url(#linear-gradient-26-coffee-lover-58);}.cls-33_coffee-lover-58{fill:url(#linear-gradient-45-coffee-lover-58);}.cls-34_coffee-lover-58{fill:url(#linear-gradient-46-coffee-lover-58);}.cls-35_coffee-lover-58{fill:url(#linear-gradient-44-coffee-lover-58);}.cls-36_coffee-lover-58{fill:url(#linear-gradient-48-coffee-lover-58);}.cls-37_coffee-lover-58{fill:url(#linear-gradient-49-coffee-lover-58);}.cls-38_coffee-lover-58{fill:url(#linear-gradient-47-coffee-lover-58);}.cls-39_coffee-lover-58{fill:url(#linear-gradient-42-coffee-lover-58);}.cls-40_coffee-lover-58{fill:url(#linear-gradient-43-coffee-lover-58);}.cls-41_coffee-lover-58{fill:url(#linear-gradient-40-coffee-lover-58);}.cls-42_coffee-lover-58{fill:url(#linear-gradient-41-coffee-lover-58);}.cls-43_coffee-lover-58{fill:url(#linear-gradient-50-coffee-lover-58);}.cls-44_coffee-lover-58{fill:url(#linear-gradient-4-coffee-lover-58);}.cls-45_coffee-lover-58{fill:url(#linear-gradient-2-coffee-lover-58);}.cls-46_coffee-lover-58{fill:url(#linear-gradient-3-coffee-lover-58);}.cls-47_coffee-lover-58{fill:url(#linear-gradient-8-coffee-lover-58);}.cls-48_coffee-lover-58{fill:url(#linear-gradient-9-coffee-lover-58);}.cls-49_coffee-lover-58{fill:url(#linear-gradient-7-coffee-lover-58);}.cls-50_coffee-lover-58{fill:url(#linear-gradient-5-coffee-lover-58);}.cls-51_coffee-lover-58{fill:url(#linear-gradient-6-coffee-lover-58);}.cls-52_coffee-lover-58{isolation:isolate;opacity:.27;}.cls-52_coffee-lover-58,.cls-56_coffee-lover-58{fill:#68e1fd;}.cls-53_coffee-lover-58{fill:#231f20;}.cls-54_coffee-lover-58{fill:#fff;}.cls-55_coffee-lover-58{fill:#ffaa71;}</style><linearGradient id="linear-gradient-coffee-lover-58" x1="230.58" y1="-1528.48" x2="232.7" y2="-1553.23" gradientTransform="translate(-31 1735.53)" gradientUnits="userSpaceOnUse"><stop offset="0" stop-color="#231f20" stop-opacity="0"/><stop offset="1" stop-color="#231f20"/></linearGradient><linearGradient id="linear-gradient-2-coffee-lover-58" x1="259.46" y1="-1526" x2="261.58" y2="-1550.77" xlink:href="#linear-gradient-coffee-lover-58"/><linearGradient id="linear-gradient-3-coffee-lover-58" x1="239.01" y1="-1553.74" x2="251.33" y2="-1553.74" xlink:href="#linear-gradient-coffee-lover-58"/><linearGradient id="linear-gradient-4-coffee-lover-58" x1="232.95" y1="-1562.86" x2="257.41" y2="-1562.86" xlink:href="#linear-gradient-coffee-lover-58"/><linearGradient id="linear-gradient-5-coffee-lover-58" x1="263.32" y1="348.06" x2="346.73" y2="291.59" gradientTransform="translate(0 502) scale(1 -1)" xlink:href="#linear-gradient-coffee-lover-58"/><linearGradient id="linear-gradient-6-coffee-lover-58" x1="335.57" y1="152.32" x2="231.3" y2="-19.27" gradientTransform="matrix(1,0,0,1,0,0)" xlink:href="#linear-gradient-coffee-lover-58"/><linearGradient id="linear-gradient-7-coffee-lover-58" x1="323.15" y1="181.71" x2="437.4" y2="278.58" gradientTransform="matrix(1,0,0,1,0,0)" xlink:href="#linear-gradient-coffee-lover-58"/><linearGradient id="linear-gradient-8-coffee-lover-58" x1="324.47" y1="171.48" x2="473.9" y2="329.16" gradientTransform="matrix(1,0,0,1,0,0)" xlink:href="#linear-gradient-coffee-lover-58"/><linearGradient id="linear-gradient-9-coffee-lover-58" x1="404.09" y1="-1489.58" x2="441.46" y2="-1489.58" gradientTransform="translate(-71.76 1735.17)" xlink:href="#linear-gradient-coffee-lover-58"/><linearGradient id="linear-gradient-10-coffee-lover-58" x1="347.62" y1="-1525.1" x2="346.75" y2="-1472.97" gradientTransform="translate(-71.76 1735.17)" xlink:href="#linear-gradient-coffee-lover-58"/><linearGradient id="linear-gradient-11-coffee-lover-58" x1="355.31" y1="-1523.8" x2="371.36" y2="-1523.65" gradientTransform="translate(-71.76 1735.17)" xlink:href="#linear-gradient-coffee-lover-58"/><linearGradient id="linear-gradient-12-coffee-lover-58" x1="373.64" y1="-1525.74" x2="369" y2="-1525.86" gradientTransform="translate(-71.76 1735.17)" xlink:href="#linear-gradient-coffee-lover-58"/><linearGradient id="linear-gradient-13-coffee-lover-58" x1="252.16" y1="87.98" x2="265.19" y2="70.17" gradientTransform="translate(0 502) scale(1 -1)" gradientUnits="userSpaceOnUse"><stop offset="0" stop-color="#fff"/><stop offset="1" stop-color="#fff" stop-opacity="0"/></linearGradient><linearGradient id="linear-gradient-14-coffee-lover-58" x1="341.49" y1="95.71" x2="326.72" y2="68.13" xlink:href="#linear-gradient-13-coffee-lover-58"/><linearGradient id="linear-gradient-15-coffee-lover-58" x1="362.92" y1="-1527.83" x2="363.57" y2="-1571.92" gradientTransform="translate(-71.76 1735.17)" xlink:href="#linear-gradient-13-coffee-lover-58"/><linearGradient id="linear-gradient-16-coffee-lover-58" x1="359.84" y1="-1527.83" x2="360.5" y2="-1571.92" gradientTransform="translate(-71.76 1735.17)" xlink:href="#linear-gradient-13-coffee-lover-58"/><linearGradient id="linear-gradient-17-coffee-lover-58" x1="121.58" y1="-1555.12" x2="144.17" y2="-1556.42" gradientTransform="translate(-31 1735.53)" xlink:href="#linear-gradient-13-coffee-lover-58"/><linearGradient id="linear-gradient-18-coffee-lover-58" x1="239.09" y1="-1619.76" x2="242.14" y2="-1619.76" gradientTransform="translate(-71.76 1735.17)" xlink:href="#linear-gradient-coffee-lover-58"/><linearGradient id="linear-gradient-19-coffee-lover-58" x1="-182.01" y1="-1974.37" x2="-178.97" y2="-1974.37" gradientTransform="translate(-228.28 2066.16) rotate(16.81)" xlink:href="#linear-gradient-coffee-lover-58"/><linearGradient id="linear-gradient-20-coffee-lover-58" x1="-2564.03" y1="-1762.47" x2="-2560.33" y2="-1762.47" gradientTransform="translate(-1772.88 2546.36) rotate(94.2)" xlink:href="#linear-gradient-coffee-lover-58"/><linearGradient id="linear-gradient-21-coffee-lover-58" x1="246.75" y1="-1619.29" x2="249.81" y2="-1619.29" gradientTransform="translate(-71.76 1735.17)" xlink:href="#linear-gradient-coffee-lover-58"/><linearGradient id="linear-gradient-22-coffee-lover-58" x1="447.62" y1="561.08" x2="450.66" y2="561.08" gradientTransform="translate(-511.22 339.53) rotate(-68.72)" xlink:href="#linear-gradient-coffee-lover-58"/><linearGradient id="linear-gradient-23-coffee-lover-58" x1="443.01" y1="559.93" x2="446.05" y2="559.93" gradientTransform="translate(-511.22 339.53) rotate(-68.72)" xlink:href="#linear-gradient-coffee-lover-58"/><linearGradient id="linear-gradient-24-coffee-lover-58" x1="240.24" y1="-1628.56" x2="243.94" y2="-1628.56" gradientTransform="translate(-71.76 1735.17)" xlink:href="#linear-gradient-coffee-lover-58"/><linearGradient id="linear-gradient-25-coffee-lover-58" x1="462.42" y1="557.52" x2="465.47" y2="557.52" gradientTransform="translate(-511.22 339.53) rotate(-68.72)" xlink:href="#linear-gradient-coffee-lover-58"/><linearGradient id="linear-gradient-26-coffee-lover-58" x1="458.15" y1="554.03" x2="461.2" y2="554.03" gradientTransform="translate(-511.22 339.53) rotate(-68.72)" xlink:href="#linear-gradient-coffee-lover-58"/><linearGradient id="linear-gradient-27-coffee-lover-58" x1="172.53" y1="-1528.43" x2="213.34" y2="-1528.43" xlink:href="#linear-gradient-coffee-lover-58"/><linearGradient id="linear-gradient-28-coffee-lover-58" x1="193.33" y1="-1615.47" x2="193.17" y2="-1564.63" xlink:href="#linear-gradient-coffee-lover-58"/><linearGradient id="linear-gradient-29-coffee-lover-58" x1="184.15" y1="-1622.87" x2="220.21" y2="-1623.74" gradientTransform="translate(-31 1735.53)" xlink:href="#linear-gradient-13-coffee-lover-58"/><linearGradient id="linear-gradient-30-coffee-lover-58" x1="221.68" y1="-1606.5" x2="225.37" y2="-1606.5" gradientTransform="translate(-71.76 1735.17)" xlink:href="#linear-gradient-coffee-lover-58"/><linearGradient id="linear-gradient-31-coffee-lover-58" x1="664.59" y1="-543.02" x2="667.64" y2="-543.02" gradientTransform="translate(-78.03 952.3) rotate(-35.09)" xlink:href="#linear-gradient-coffee-lover-58"/><linearGradient id="linear-gradient-32-coffee-lover-58" x1="435.68" y1="548.92" x2="438.73" y2="548.92" gradientTransform="translate(-511.22 339.53) rotate(-68.72)" xlink:href="#linear-gradient-coffee-lover-58"/><linearGradient id="linear-gradient-33-coffee-lover-58" x1="229.99" y1="-1608.92" x2="233.69" y2="-1608.92" gradientTransform="translate(-71.76 1735.17)" xlink:href="#linear-gradient-coffee-lover-58"/><linearGradient id="linear-gradient-34-coffee-lover-58" x1="233.57" y1="-1612.51" x2="236.62" y2="-1612.51" gradientTransform="translate(-71.76 1735.17)" xlink:href="#linear-gradient-coffee-lover-58"/><linearGradient id="linear-gradient-35-coffee-lover-58" x1="222.93" y1="-1615.51" x2="226.63" y2="-1615.51" gradientTransform="translate(-71.76 1735.17)" xlink:href="#linear-gradient-coffee-lover-58"/><linearGradient id="linear-gradient-36-coffee-lover-58" x1="-719.76" y1="-2242.71" x2="-716.05" y2="-2242.71" gradientTransform="translate(-513.34 2363.91) rotate(34.53)" xlink:href="#linear-gradient-coffee-lover-58"/><linearGradient id="linear-gradient-37-coffee-lover-58" x1="225.36" y1="-1617.96" x2="228.4" y2="-1617.96" gradientTransform="translate(-71.76 1735.17)" xlink:href="#linear-gradient-coffee-lover-58"/><linearGradient id="linear-gradient-38-coffee-lover-58" x1="444.53" y1="543.88" x2="447.57" y2="543.88" gradientTransform="translate(-511.22 339.53) rotate(-68.72)" xlink:href="#linear-gradient-coffee-lover-58"/><linearGradient id="linear-gradient-39-coffee-lover-58" x1="74.45" y1="1006.24" x2="78.15" y2="1006.24" gradientTransform="translate(-848.31 134.59) rotate(-86.69)" xlink:href="#linear-gradient-coffee-lover-58"/><linearGradient id="linear-gradient-40-coffee-lover-58" x1="234.84" y1="-1621.57" x2="237.88" y2="-1621.57" gradientTransform="translate(-71.76 1735.17)" xlink:href="#linear-gradient-coffee-lover-58"/><linearGradient id="linear-gradient-41-coffee-lover-58" x1="449.76" y1="551.2" x2="452.8" y2="551.2" gradientTransform="translate(-511.22 339.53) rotate(-68.72)" xlink:href="#linear-gradient-coffee-lover-58"/><linearGradient id="linear-gradient-42-coffee-lover-58" x1="215.78" y1="-1617.4" x2="219.48" y2="-1617.4" gradientTransform="translate(-71.76 1735.17)" xlink:href="#linear-gradient-coffee-lover-58"/><linearGradient id="linear-gradient-43-coffee-lover-58" x1="-1256.44" y1="-2308.19" x2="-1253.4" y2="-2308.19" gradientTransform="translate(-823.45 2552.71) rotate(50.19)" xlink:href="#linear-gradient-coffee-lover-58"/><linearGradient id="linear-gradient-44-coffee-lover-58" x1="446.89" y1="536.22" x2="449.95" y2="536.22" gradientTransform="translate(-511.22 339.53) rotate(-68.72)" xlink:href="#linear-gradient-coffee-lover-58"/><linearGradient id="linear-gradient-45-coffee-lover-58" x1="221.03" y1="-1625.81" x2="224.73" y2="-1625.81" gradientTransform="translate(-71.76 1735.17)" xlink:href="#linear-gradient-coffee-lover-58"/><linearGradient id="linear-gradient-46-coffee-lover-58" x1="226.62" y1="-1626.99" x2="229.66" y2="-1626.99" gradientTransform="translate(-71.76 1735.17)" xlink:href="#linear-gradient-coffee-lover-58"/><linearGradient id="linear-gradient-47-coffee-lover-58" x1="453.38" y1="541.79" x2="456.43" y2="541.79" gradientTransform="translate(-511.22 339.53) rotate(-68.72)" xlink:href="#linear-gradient-coffee-lover-58"/><linearGradient id="linear-gradient-48-coffee-lover-58" x1="439.98" y1="535.97" x2="443.02" y2="535.97" gradientTransform="translate(-511.22 339.53) rotate(-68.72)" xlink:href="#linear-gradient-coffee-lover-58"/><linearGradient id="linear-gradient-49-coffee-lover-58" x1="458.63" y1="543.71" x2="461.69" y2="543.71" gradientTransform="translate(-511.22 339.53) rotate(-68.72)" xlink:href="#linear-gradient-coffee-lover-58"/><linearGradient id="linear-gradient-50-coffee-lover-58" x1="437.87" y1="554.56" x2="440.91" y2="554.56" gradientTransform="translate(-511.22 339.53) rotate(-68.72)" xlink:href="#linear-gradient-coffee-lover-58"/></defs><g id="background_coffee-lover-58"><path class="cls-52_coffee-lover-58 targetColor" d="M66.56,220.4s13.18-95.41,55.35-133.16c42.17-37.75,74.24-50.52,130.21-14.36,55.96,36.16,91.98,32.12,117.03,22.94,25.04-9.19,78.51,45.13,39.92,123.45-21.01,42.65-18.3,77.2-11.46,99.8,11.12,36.8-11,75.7-48.5,84.2-20.96,4.76-48.87,6.06-86.06.91-142.8-19.76-133.99,19.9-176.02-9.44-42.03-29.35-20.47-174.33-20.47-174.33h0Z" style="fill: rgb(104, 225, 253);"/><path class="cls-52_coffee-lover-58 targetColor" d="M304.73,147.26c-18.92,3.38-36.73,11.19-54.25,19.11-30.4,13.72-60.55,28-90.45,42.82-13.89,6.94-28.41,14.44-36.9,27.43-11.79,18.02-8.63,43.19,4.07,60.58,12.71,17.39,33.27,27.69,54.31,32.25,21.04,4.56,42.82,3.98,64.33,3.37l61.55-1.76c12.67-.36,26.88-1.41,35.22-10.95,5.6-6.41,7.22-15.27,8.46-23.69,3.78-25.57,6.32-52.17,18.95-74.73,9.43-16.84,37.03-48.05,16.28-66.71-16.83-15.15-61.34-11.32-81.58-7.71h0Z" style="fill: rgb(104, 225, 253);"/></g><g id="taable_coffee-lover-58"><rect class="cls-56_coffee-lover-58 targetColor" x="29.98" y="218.25" width="393.74" height="11.5" style="fill: rgb(104, 225, 253);"/><rect class="cls-56_coffee-lover-58 targetColor" x="77.8" y="227.46" width="9.21" height="222.21" style="fill: rgb(104, 225, 253);"/><rect class="cls-56_coffee-lover-58 targetColor" x="383.55" y="227.46" width="9.21" height="222.21" style="fill: rgb(104, 225, 253);"/></g><g id="filter_coffee-lover-58"><rect class="cls-56_coffee-lover-58 targetColor" x="198.07" y="187.21" width="3.68" height="32.05" style="fill: rgb(104, 225, 253);"/><rect class="cls-2_coffee-lover-58" x="198.07" y="187.21" width="3.68" height="32.05"/><rect class="cls-56_coffee-lover-58 targetColor" x="194.44" y="184.76" width="39.47" height="2.46" style="fill: rgb(104, 225, 253);"/><rect class="cls-56_coffee-lover-58 targetColor" x="227.16" y="187.21" width="3.68" height="32.05" style="fill: rgb(104, 225, 253);"/><rect class="cls-45_coffee-lover-58" x="227.16" y="187.21" width="3.68" height="32.05"/><rect class="cls-56_coffee-lover-58 targetColor" x="208.01" y="178.97" width="12.32" height="5.65" style="fill: rgb(104, 225, 253);"/><rect class="cls-46_coffee-lover-58" x="208.01" y="178.97" width="12.32" height="5.65"/><polyline class="cls-56_coffee-lover-58 targetColor" points="208.01 178.97 201.95 166.38 226.41 166.38 220.34 178.97" style="fill: rgb(104, 225, 253);"/><polyline class="cls-44_coffee-lover-58" points="208.01 178.97 201.95 166.38 226.41 166.38 220.34 178.97"/><rect class="cls-56_coffee-lover-58 targetColor" x="200.24" y="178.97" width="28.76" height="1.6" style="fill: rgb(104, 225, 253);"/><polygon class="cls-54_coffee-lover-58" points="203.16 166.38 200.97 162.48 211.27 162.48 215.28 165.54 214.63 163.48 220.59 163.48 222.58 162.48 227.16 162.48 224.99 166.38 203.16 166.38"/></g><g id="character_coffee-lover-58"><path class="cls-56_coffee-lover-58 targetColor" d="M362.53,321.89h7.15v130.52c0,1.97-1.6,3.58-3.58,3.58h0c-1.97,0-3.58-1.6-3.58-3.58v-130.52h0Z" style="fill: rgb(104, 225, 253);"/><path class="cls-56_coffee-lover-58 targetColor" d="M318.84,321.89h7.15v130.52c0,1.97-1.6,3.58-3.58,3.58h0c-1.97,0-3.58-1.6-3.58-3.58v-130.52h0Z" style="fill: rgb(104, 225, 253);"/><rect class="cls-56_coffee-lover-58 targetColor" x="323.72" y="394.73" width="40.22" height="6.42" style="fill: rgb(104, 225, 253);"/><rect class="cls-56_coffee-lover-58 targetColor" x="310.19" y="297.57" width="68.05" height="24.31" rx="7.78" ry="7.78" style="fill: rgb(104, 225, 253);"/><path class="cls-56_coffee-lover-58 targetColor" d="M362.53,321.89h7.15v130.52c0,1.97-1.6,3.58-3.58,3.58h0c-1.97,0-3.58-1.6-3.58-3.58v-130.52h0Z" style="fill: rgb(104, 225, 253);"/><path class="cls-56_coffee-lover-58 targetColor" d="M318.84,321.89h7.15v130.52c0,1.97-1.6,3.58-3.58,3.58h0c-1.97,0-3.58-1.6-3.58-3.58v-130.52h0Z" style="fill: rgb(104, 225, 253);"/><rect class="cls-56_coffee-lover-58 targetColor" x="323.72" y="394.73" width="40.22" height="6.42" style="fill: rgb(104, 225, 253);"/><rect class="cls-56_coffee-lover-58 targetColor" x="310.19" y="297.57" width="68.05" height="24.31" rx="7.78" ry="7.78" style="fill: rgb(104, 225, 253);"/><path class="cls-53_coffee-lover-58" d="M304.51,254.37s-35.87,25.28-47.84,46.78,3.17,101.42,3.17,101.42c0,0,10.13,6.48,15.04,0,4.92-6.48,5.35-55.54,5.35-55.54l57.59-86.53s-16.05-8.81-33.32-6.12h0Z"/><path class="cls-53_coffee-lover-58" d="M364.68,262.28s8.38,22.48-.61,32.82c-8.99,10.33-43.83,32.31-44.81,33.73-.97,1.42,6.87,69.5,6.87,69.5,0,0,.1,9.64-9.45,6.43-9.56-3.21-38.93-68.27-34.72-82.87,1.71-5.89,45.03-62.85,46.44-62.59,1.41.25,36.28,2.97,36.28,2.97h0Z"/><path class="cls-56_coffee-lover-58 targetColor" d="M334.01,137.98c4.12.13,8.24.54,12.3,1.25,1.89.24,3.71.91,5.3,1.96,3.15,2.82,14.22,115.87,14.22,115.87,0,0,.83,6.62-4.95,7.44s-56.35-10.13-56.35-10.13c0,0,1.76-75.34-.49-78.09-2.24-2.74,3.4-28.21,10.41-30.18s19.56-8.12,19.56-8.12h0Z" style="fill: rgb(104, 225, 253);"/><path class="cls-50_coffee-lover-58" d="M334.01,137.98c4.12.13,8.24.54,12.3,1.25,1.89.24,3.71.91,5.3,1.96,3.15,2.82,14.22,115.87,14.22,115.87,0,0,.83,6.62-4.95,7.44s-56.35-10.13-56.35-10.13c0,0,1.76-75.34-.49-78.09-2.24-2.74,3.4-28.21,10.41-30.18s19.56-8.12,19.56-8.12h0Z"/><path class="cls-55_coffee-lover-58" d="M332.9,122.96s1.39,15.04,4.35,21.91c2.96,6.86-6.55,18.61-10.55,17.09s-1.53-7.54-5.24-17.83c-3.71-10.29,8.13-24.07,11.44-21.16h0Z"/><path class="cls-51_coffee-lover-58" d="M330.05,123.77c.56,1.08.87,2.97,1.02,3.73.35,1.81.47,3.68.51,5.53.14,5.91-.46,12.12-3.36,16.98-.66,1.1-1.49,2.17-2.61,2.51-1.48.46-2.45-.62-2.79-2.14-.47-2.11-.83-4.21-1.47-6.27-1.75-5.62.39-12.07,3.32-16.62.69-1.08,3.24-5.08,4.69-4.5.26.1.48.38.67.76Z"/><path class="cls-56_coffee-lover-58 targetColor" d="M365.84,151.2s-9.52-10.72-20.23-12.53c-10.7-1.82-9.86-2.03-9.86-2.03l-.68-1.79s-1.72,2.15-1.86,7.45c.05,4.72.39,9.44,1.03,14.12.17,1.62-2.57,27.84-6.58,31.56-4.02,3.71,4.06,28.12,4.06,28.12l-11.75-3.97v1.16l-.69,18.61,13.01,4.56s1.04,16.79,5.49,24.09c4.44,7.3,22.52,12.73,30.24,13.52,7.72.79-.86-25.97.56-30.2,0,0,16.42,1.3,15.1-12.15s-3.51-70.5-17.82-80.51h-.02Z" style="fill: rgb(104, 225, 253);"/><path class="cls-49_coffee-lover-58" d="M365.84,151.2s-9.52-10.72-20.23-12.53c-10.7-1.82-9.86-2.03-9.86-2.03l-.68-1.79s-1.72,2.15-1.86,7.45c.05,4.72.39,9.44,1.03,14.12.17,1.62-2.57,27.84-6.58,31.56-4.02,3.71,4.06,28.12,4.06,28.12l-11.75-3.97v1.16l-.69,18.61,13.01,4.56s1.04,16.79,5.49,24.09c4.44,7.3,22.52,12.73,30.24,13.52,7.72.79-.86-25.97.56-30.2,0,0,16.42,1.3,15.1-12.15s-3.51-70.5-17.82-80.51h-.02Z"/><path class="cls-47_coffee-lover-58" d="M331.76,216.13l26.92,4.27-4.36-54.39s-5.79-4.63-7.05,5.54c-1.26,10.17,2.87,31.24-4.15,31.86-7.02.61-16.2-6.63-16.2-6.63,0,0,2.41,16.47,4.85,19.35h-.01Z"/><path class="cls-48_coffee-lover-58" d="M332.28,236.45l36.28,7.41s-.31,8.24,1.05,10.52c1.37,2.28-36.29-7.11-37.33-17.92h0Z"/><path class="cls-56_coffee-lover-58 targetColor" d="M322.43,147.19s-18.57,17.22-12.94,77.17c0,0,3.41,34.07,2.04,37.65s-11.21,6.32-11.21,6.32c0,0,.52-73.06.5-78.28,0,0-5.25,28.66-22.07,31.71-16.81,3.04-45.5,3.97-46.52,2.23s-5.57-10.21,3.8-15.04c9.36-4.84,36.89-1.16,44.19-16.3,7.3-15.15,12.94-40.78,34.24-46.55l6.94-1.98,1.03,3.08h0Z" style="fill: rgb(104, 225, 253);"/><path class="cls-19_coffee-lover-58" d="M322.43,147.19s-18.57,17.22-12.94,77.17c0,0,3.41,34.07,2.04,37.65s-11.21,6.32-11.21,6.32c0,0,.52-73.06.5-78.28,0,0-5.25,28.66-22.07,31.71-16.81,3.04-45.5,3.97-46.52,2.23s-5.57-10.21,3.8-15.04c9.36-4.84,36.89-1.16,44.19-16.3,7.3-15.15,12.94-40.78,34.24-46.55l6.94-1.98,1.03,3.08h0Z"/><path class="cls-54_coffee-lover-58" d="M278.33,200.62c.42-.16,19.21.64,19.21.64l-.62,13.19c-.19,3.79-3.32,6.77-7.12,6.77h-4.91c-3.94,0-7.13-3.19-7.13-7.13,0-.13,0-.25.01-.38l.56-13.09Z"/><path class="cls-16_coffee-lover-58" d="M279.44,201.84c.38-.14,17.77.6,17.77.6l-.58,12.19c-.17,3.51-3.07,6.28-6.58,6.27h-4.54c-3.63,0-6.58-2.93-6.58-6.56,0-.13,0-.25.01-.38l.5-12.12h0Z"/><path class="cls-54_coffee-lover-58" d="M297.48,202.6s5.32-1.67,7.05,1.16c0,0,2.14,11.76-5.15,12.47l-3.21.35.74-2.18s3.3.79,4.17-3.91c.87-4.7-.14-6.62-3.71-5.58l.12-2.31h-.01Z"/><path class="cls-17_coffee-lover-58" d="M297.48,202.6s5.32-1.67,7.05,1.16c0,0,2.14,11.76-5.15,12.47l-3.21.35.74-2.18s3.3.79,4.17-3.91c.87-4.7-.14-6.62-3.71-5.58l.12-2.31h-.01Z"/><path class="cls-55_coffee-lover-58" d="M232.23,211.09s-19.46-2-27,1.59c-5.76,2.93-11.32,6.25-16.64,9.93,0,0-3.3,3.91,1.74,3.81,5.03-.1,19.94-4.8,23.85-4.63s-4.94,4.14-4.29,5.53c.65,1.39,8.77.6,12.62-.88,3.85-1.48,8.91-3.99,8.91-3.99,0,0,5.15-7.01.81-11.35h0Z"/><path class="cls-55_coffee-lover-58" d="M263.04,404.17l1.5,10.01s4.95,3.09,8.99,0l1.33-11.57-11.83,1.56h.01Z"/><path class="cls-55_coffee-lover-58" d="M316.69,404.76l3.24,8.56c.54,1.42,2.03,2.25,3.53,1.97,2.04-.37,4.63-1.28,5.66-3.47l-2.97-13.45-9.45,6.39h0Z"/><path class="cls-56_coffee-lover-58 targetColor" d="M274.2,411.28c-2.77,2.08-6.19,3.11-9.65,2.9,0,0-9.15,11.36-12.44,11.99-3.29.62-10.96,8.91-6.38,12.9s33.79-14.2,33.79-14.2c0,0,.74-.78-.09-3.25-.83-2.48-2.41-9.93-5.23-10.35h0Z" style="fill: rgb(104, 225, 253);"/><path class="cls-56_coffee-lover-58 targetColor" d="M329.12,409.07s-12.1,1.62-11.26,7.39c.84,5.77.86,8.67,1.27,10.11.42,1.45,4.04,4.35,3.15,11.57s3.31,13.99,10.65,11.51c7.34-2.48,8.91-5.94,6.87-13.55-1.16-4.4-6.14-14.57-6.35-16.02-.21-1.45-1.01-9.2-4.33-11.03v.02Z" style="fill: rgb(104, 225, 253);"/><path class="cls-18_coffee-lover-58" d="M274.2,411.28c-2.77,2.08-6.19,3.11-9.65,2.9,0,0-9.15,11.36-12.44,11.99-3.29.62-10.96,8.91-6.38,12.9s33.79-14.2,33.79-14.2c0,0,.74-.78-.09-3.25-.83-2.48-2.41-9.93-5.23-10.35h0Z"/><path class="cls-27_coffee-lover-58" d="M329.12,409.07s-12.1,1.62-11.26,7.39c.84,5.77.86,8.67,1.27,10.11.42,1.45,4.04,4.35,3.15,11.57s3.31,13.99,10.65,11.51c7.34-2.48,8.91-5.94,6.87-13.55-1.16-4.4-6.14-14.57-6.35-16.02-.21-1.45-1.01-9.2-4.33-11.03v.02Z"/><path class="cls-53_coffee-lover-58" d="M295.05,100.63s-.54-15.15,13.02-19.14,32.27.53,33.65,16.66,9.94,11.72,12.54,15.44c2.6,3.71,9.7,12.82,3.47,21.91-6.23,9.08,6.3,14.07,6.3,14.07,0,0-.51,7.9-8.53,6.4s-14.15-3.29-14.68-10.01-4.13-4.42-5.46-7.93c-1.16-3.15-2.09-12.39-2.31-14.05-.22-1.65-8.34-8.46-11.44-10.41-3.1-1.96-21.27-17.01-26.55-12.94h-.01Z"/><path class="cls-55_coffee-lover-58" d="M335.96,115.34c-2.35-.55-4.7.92-5.25,3.27-.04.16-.07.33-.09.5-.8,4.74,1.55,8.55,3.75,5.38,2.2-3.17,3.58-8.03,1.59-9.15Z"/><path class="cls-53_coffee-lover-58" d="M296.59,118.13s5.47,28.15,1.39,30.23c-4.08,2.07-7.24,10.88-2.93,13.89,4.32,3.01,7.35-4.86,13.02-6.08,5.67-1.22,6.09.24,8.78-3.9,1.64-2.71,2.48-5.83,2.41-9l-11.19-34.19s-12.52-6.51-11.48,9.06h0Z"/><path class="cls-55_coffee-lover-58" d="M296.59,114.83s6.56,37.96,23.14,30.24c10.59-4.95,12.54-18.84,12.54-28.17.03-3.03-.16-6.07-.57-9.07,0,0-24.17-33.52-35.12,7h.01Z"/><path class="cls-53_coffee-lover-58" d="M298.93,97.18s-15.6,11.38-5.49,18.92c10.11,7.54,15.04,1.01,18.38,0s4.18,2.67,10.19,1.16c3.36-.91,6.89-1.04,10.31-.39l4.93-6.46c-1.07-3.01-2.75-5.77-4.93-8.1-3.97-4.57-15.82-20.82-33.4-5.13h0Z"/><path class="cls-23_coffee-lover-58" d="M285.14,196.75c-1.16-4.41-.59-9.09,1.6-13.09,3.69-6.69-4.91-15.55-4.76-18.72s4.76-9.59,4.76-9.59l10.83,3.29s-.95,9.26,2.78,13.47-3.31,12.6-4.14,17.98c-.36,2.1-.22,4.25.38,6.28.52,1.6.38,3.34-.38,4.84h0l-11.57-.45s2.18-.02.51-4h0Z"/><path class="cls-21_coffee-lover-58" d="M282.09,196.75c-1.17-4.4-.6-9.09,1.59-13.09,3.68-6.69-4.92-15.55-4.77-18.72.15-3.17,4.77-9.59,4.77-9.59l10.82,3.29s-.95,9.26,2.78,13.47-3.31,12.6-4.14,17.98c-.35,2.1-.22,4.25.39,6.28.51,1.6.37,3.34-.39,4.84h0l-11.57-.45s2.21-.02.53-4h0Z"/><path class="cls-55_coffee-lover-58" d="M316.72,209.54l3.25,3.78-.6,16.05c-4.62.16-9.01-2.01-11.68-5.79-4.83-6.48-7.58-7.37-7.79-7.44s-3.1-2.68-1.52-4.96c1.59-2.28-2.42-5.31.41-6.76s7.58-.12,7.58-.12c3.75,1.07,7.26,2.85,10.35,5.23h0Z"/></g><g id="aeropress_coffee-lover-58"><rect class="cls-56_coffee-lover-58 targetColor" x="82.41" y="142.32" width="21.13" height="75.91" style="fill: rgb(104, 225, 253);"/><rect class="cls-20_coffee-lover-58" x="82.41" y="142.32" width="21.13" height="75.91"/><rect class="cls-56_coffee-lover-58 targetColor" x="77.07" y="138.53" width="30.91" height="4.5" style="fill: rgb(104, 225, 253);"/><rect class="cls-56_coffee-lover-58 targetColor" x="77.8" y="172.71" width="30.18" height="16.36" style="fill: rgb(104, 225, 253);"/></g><g id="grinder_coffee-lover-58"><path class="cls-26_coffee-lover-58" d="M169.9,114.78c-.62-.97-1.59-1.46-2.15-1.16s-.54,1.45.06,2.42c.6.97,1.59,1.47,2.15,1.16s.54-1.39-.06-2.42ZM169.58,116.8c-.03-.09-.06-.17-.1-.25-.02-.09-.05-.17-.1-.24-.07-.1-.16-.2-.24-.29-.17-.23-.2-.56-.37-.79-.12-.13-.25-.25-.39-.36-.19-.17-.33-.39-.42-.62-.02-.08-.02-.16,0-.24,0-.07.08-.17.15-.14-.04.09-.04.2,0,.29.06.1.13.18.21.25.28.22.53.47.74.75.15.26.27.53.36.81,0,0,.06.12.1.17s.15.15.21.23c.08.16.02.35-.14.43h-.01Z"/><path class="cls-22_coffee-lover-58" d="M169.17,123.06c-.3-1.16-1.08-1.86-1.74-1.69s-.94,1.23-.64,2.31c.3,1.09,1.08,1.86,1.74,1.69s.94-1.2.64-2.31ZM168.28,124.88v-.28c0-.08,0-.17,0-.25,0-.12-.12-.23-.15-.36s0-.58-.13-.86c-.07-.16-.16-.31-.27-.45-.14-.22-.21-.46-.22-.72-.03-.08-.03-.17,0-.25,0-.06.13-.14.19-.08-.07.08-.1.18-.08.28.02.11.07.21.13.3.2.29.36.61.49.94.06.29.1.58.1.88v.2c0,.1.1.19.13.28.05.16-.03.32-.19.38h0Z"/><path class="cls-29_coffee-lover-58" d="M173.22,121.45c1.23-.66,1.91-1.78,1.53-2.51s-1.71-.79-2.94-.13-1.92,1.78-1.53,2.51,1.7.79,2.94.13ZM170.82,120.88l.31-.09c.1-.02.21-.06.3-.1.13-.07.24-.2.38-.28s.68-.2.97-.38c.17-.13.33-.28.47-.44.22-.21.49-.37.79-.45.1-.03.21-.03.31,0,.08,0,.2.12.15.2-.11-.06-.25-.06-.36,0-.12.05-.23.13-.31.23-.51.61-1.21,1.02-1.99,1.16-.08.03-.16.06-.23.1-.1.07-.19.17-.29.23-.19.09-.42.01-.51-.17h0Z"/><path class="cls-25_coffee-lover-58" d="M177.56,115.21c-.61-.97-1.57-1.47-2.15-1.1-.58.37-.54,1.45.07,2.42s1.59,1.46,2.15,1.16.54-1.5-.07-2.48ZM177.22,117.22c-.03-.09-.06-.18-.09-.27-.03-.08-.06-.16-.1-.23-.07-.1-.17-.2-.24-.3s-.21-.54-.38-.78c-.11-.13-.24-.25-.38-.36-.19-.17-.34-.38-.43-.62-.02-.08-.02-.16,0-.24,0-.07.09-.17.15-.15-.04.1-.04.2,0,.3.05.09.12.18.21.24.28.22.53.48.75.76.15.25.27.52.36.8l.09.19c.08.07.15.15.21.23.08.15.02.34-.13.42h-.02Z"/><path class="cls-28_coffee-lover-58" d="M174.37,123.44c-1.16.23-1.94.95-1.82,1.61.13.66,1.16,1.03,2.31.82s1.94-.95,1.81-1.61-1.18-1.03-2.3-.82h0ZM176.12,124.48h-.53c-.12,0-.24.09-.36.13s-.59,0-.87,0c-.17.06-.33.14-.47.23-.23.11-.48.17-.73.17-.08.02-.17.02-.25,0-.06,0-.13-.14-.07-.2.07.08.17.11.28.1.11,0,.21-.04.3-.1.31-.18.64-.32.98-.42.29-.02.58-.02.87,0,.07.01.14.01.21,0,.1,0,.19-.08.29-.1.15-.04.3.04.36.19h0Z"/><path class="cls-24_coffee-lover-58" d="M171.62,127.31c-1.16.22-1.93.94-1.81,1.6.13.66,1.16,1.03,2.31.82s1.93-.94,1.81-1.61c-.13-.67-1.18-1.03-2.31-.81h0ZM173.37,128.34h-.53c-.13,0-.24.09-.37.13s-.59,0-.86,0c-.17.06-.34.14-.49.24-.23.11-.48.16-.73.16-.08.02-.16.02-.24,0-.06,0-.13-.14-.08-.2.07.07.17.12.28.12.11-.02.21-.05.31-.1.3-.18.63-.32.97-.42.29-.03.59-.03.88,0h.21c.09-.04.19-.08.29-.12.15-.03.3.05.36.19h0Z"/><path class="cls-31_coffee-lover-58" d="M171.59,105.81c-.75-1.16-1.92-1.78-2.62-1.34s-.66,1.76.08,2.94,1.92,1.78,2.62,1.34.66-1.76-.08-2.94ZM171.2,108.26c0-.1-.07-.21-.12-.31-.03-.1-.07-.2-.13-.29-.08-.13-.21-.23-.3-.36s-.24-.67-.45-.95c-.14-.16-.3-.31-.47-.44-.23-.2-.4-.46-.51-.75-.03-.1-.03-.2,0-.3,0-.08.1-.21.19-.17-.05.11-.05.24,0,.36.06.12.15.22.25.3.34.27.64.58.9.93.18.31.32.63.44.97.03.08.07.15.12.22.08.1.19.17.25.28.09.19.02.42-.17.52h0Z"/><path class="cls-15_coffee-lover-58" d="M176.42,108.35c-1.16.23-1.93.94-1.81,1.61.13.67,1.16,1.03,2.31.81s1.93-.94,1.81-1.6-1.18-1.03-2.31-.82ZM178.18,109.38h-.28c-.08-.02-.17-.02-.25,0-.13,0-.24.09-.37.13s-.58,0-.86,0c-.17.06-.33.14-.49.23-.22.12-.48.17-.73.16-.08.02-.16.02-.24,0-.06,0-.13-.15-.07-.2.07.07.17.11.27.1.11-.01.22-.05.31-.1.31-.18.64-.32.98-.42.29-.02.58-.02.87,0h.21c.09-.04.19-.08.29-.12.15-.03.31.06.36.21h0Z"/><path class="cls-32_coffee-lover-58" d="M171.62,111.06c-1.16.23-1.93.95-1.81,1.61.13.66,1.16,1.03,2.31.82s1.93-.95,1.81-1.61c-.13-.66-1.18-1.03-2.31-.82ZM173.37,112.1h-.53c-.13,0-.24.09-.37.13s-.59,0-.86.06c-.17.06-.33.14-.49.23-.23.11-.48.17-.73.17-.08.02-.16.02-.24,0-.06,0-.13-.14-.08-.2.07.07.17.11.28.1.11,0,.22-.04.31-.1.31-.18.63-.32.97-.42.29-.02.59-.02.88,0,.07.01.14.01.21,0,.1,0,.19-.08.29-.1.13-.04.28,0,.36.13h0Z"/><rect class="cls-56_coffee-lover-58 targetColor" x="141.53" y="159.91" width="40.81" height="58.33" style="fill: rgb(104, 225, 253);"/><rect class="cls-30_coffee-lover-58" x="141.53" y="195.95" width="40.81" height="22.3"/><path class="cls-56_coffee-lover-58 targetColor" d="M142.67,90.49h37.4v26.19c0,10.04-8.14,18.18-18.18,18.19h-1.01c-10.05,0-18.21-8.14-18.21-18.19h0v-26.19h0Z" style="fill: rgb(104, 225, 253);"/><rect class="cls-56_coffee-lover-58 targetColor" x="157.3" y="126.06" width="9.92" height="33.94" style="fill: rgb(104, 225, 253);"/><rect class="cls-14_coffee-lover-58" x="157.3" y="126.06" width="9.92" height="33.94"/><path class="cls-5_coffee-lover-58" d="M142.67,90.49h37.4v26.19c0,10.04-8.14,18.18-18.18,18.19h-1.01c-10.05,0-18.21-8.14-18.21-18.19h0v-26.19h0Z"/><rect class="cls-56_coffee-lover-58 targetColor" x="140.38" y="87.24" width="42.24" height="3.25" style="fill: rgb(104, 225, 253);"/><path class="cls-7_coffee-lover-58" d="M153.03,127.87c-.75-1.16-1.92-1.78-2.62-1.34s-.66,1.76.08,2.94,1.92,1.78,2.62,1.34.66-1.76-.08-2.94ZM152.64,130.31c0-.1-.07-.21-.12-.31-.03-.1-.07-.2-.13-.29-.08-.13-.21-.23-.3-.36s-.24-.67-.45-.95c-.14-.16-.3-.31-.47-.44-.23-.2-.4-.46-.51-.75-.03-.1-.03-.2,0-.3,0-.08.1-.21.19-.17-.05.11-.05.24,0,.36.06.12.15.22.25.3.34.27.64.58.9.93.18.31.32.63.44.97.03.08.07.15.12.22.08.1.19.17.25.28.09.19.02.42-.17.52h0Z"/><path class="cls-8_coffee-lover-58" d="M155.33,123.91c-1.06-.44-2.14-.29-2.4.34s.38,1.5,1.45,1.94,2.13.29,2.4-.34-.39-1.48-1.45-1.94ZM156.23,125.75l-.23-.16c-.07-.05-.14-.1-.22-.14-.12,0-.24,0-.37-.09s-.49-.34-.75-.43c-.17-.05-.35-.07-.53-.07-.25-.03-.49-.12-.69-.27-.07-.04-.13-.11-.17-.19v-.2c.02.1.08.19.16.24.1.04.2.07.31.08.36.01.71.08,1.05.2.27.12.52.27.75.44l.19.09c.1,0,.21,0,.3.07.17.05.27.23.22.4v.02h-.02Z"/><path class="cls-6_coffee-lover-58" d="M158.7,130.16c-1.16.22-1.93.94-1.81,1.6s1.16,1.03,2.31.82,1.93-.95,1.81-1.61c-.13-.66-1.16-1.03-2.31-.81h0ZM160.46,131.19h-.53c-.13,0-.24.09-.37.13s-.59,0-.86,0c-.17.06-.33.14-.49.23-.23.11-.48.17-.73.17-.08.02-.16.02-.24,0-.06,0-.13-.14-.08-.2.07.07.17.11.28.1.11,0,.22-.04.31-.1.31-.18.63-.32.97-.42.29-.02.59-.02.88,0,.07,0,.14,0,.21,0,.1,0,.19-.08.29-.1.16-.05.33.03.39.19h-.03Z"/><path class="cls-4_coffee-lover-58" d="M161.34,125.45c-.75-1.16-1.92-1.78-2.62-1.34s-.66,1.76.08,2.94c.74,1.18,1.92,1.78,2.62,1.34s.66-1.76-.08-2.94ZM160.95,127.89c0-.1-.07-.21-.12-.31-.03-.1-.07-.2-.13-.29-.08-.13-.21-.23-.3-.36s-.24-.67-.45-.95c-.14-.16-.3-.31-.47-.44-.23-.2-.4-.46-.51-.75-.03-.1-.03-.2,0-.3,0-.08.1-.21.19-.17-.05.11-.05.24,0,.36.06.12.15.22.25.3.34.27.64.58.9.93.18.31.32.63.44.97.03.08.07.15.12.22.08.1.19.17.25.28.09.19.02.42-.17.52h0Z"/><path class="cls-11_coffee-lover-58" d="M164.37,121.98c-.61-.97-1.57-1.46-2.15-1.1s-.53,1.45.07,2.42,1.59,1.47,2.15,1.16.54-1.5-.07-2.48ZM164.05,123.99c-.03-.09-.06-.17-.09-.25-.02-.09-.06-.17-.1-.24-.07-.1-.17-.19-.24-.29s-.21-.56-.37-.79c-.12-.13-.25-.25-.39-.36-.19-.17-.34-.38-.42-.62-.02-.08-.02-.16,0-.24,0-.07.09-.17.16-.14-.05.09-.05.2,0,.29.05.1.12.18.21.25.28.22.53.47.74.75.14.26.26.53.36.81,0,0,.06.12.09.17s.16.14.21.23c.08.14.03.33-.11.41,0,0-.02.01-.04.02h-.01Z"/><path class="cls-13_coffee-lover-58" d="M154.29,118.86c-.75-1.16-1.92-1.78-2.62-1.34-.69.44-.66,1.77.08,2.93s1.92,1.78,2.62,1.34.66-1.75-.08-2.93ZM153.9,121.3c0-.1-.07-.21-.12-.31-.03-.1-.07-.2-.13-.29-.08-.13-.21-.23-.3-.36s-.24-.67-.45-.95c-.14-.16-.3-.31-.47-.44-.23-.2-.4-.46-.51-.75-.03-.1-.03-.2,0-.3,0-.08.1-.21.19-.17-.05.11-.05.24,0,.36.06.12.15.22.25.3.34.27.64.58.9.93.18.31.32.63.44.97.03.08.07.15.12.22.08.1.19.17.25.28.09.19.02.42-.17.52h0Z"/><path class="cls-9_coffee-lover-58" d="M167.96,109.42c0-1.4-.57-2.56-1.39-2.59s-1.54,1.08-1.6,2.46c-.06,1.39.57,2.56,1.39,2.59s1.6-1.08,1.6-2.46ZM166.28,111.18c0-.1,0-.21.08-.32v-.77c0-.35.19-.69.16-1.04-.02-.21-.07-.42-.14-.62-.07-.3-.07-.61,0-.91,0-.1.06-.19.13-.27,0,0,.21-.12.25,0-.11.07-.18.18-.21.3-.02.13-.02.26,0,.39.13.41.2.84.22,1.27-.03.36-.1.71-.2,1.05v.61c-.03.16-.15.28-.3.31h0Z"/><path class="cls-12_coffee-lover-58" d="M156.17,116.58c-.62-.97-1.59-1.47-2.15-1.16s-.54,1.45.07,2.42,1.57,1.47,2.15,1.16.53-1.45-.07-2.42ZM155.84,118.58c0-.08-.06-.17-.09-.25-.03-.09-.07-.17-.12-.24-.07-.1-.16-.2-.24-.29-.17-.23-.2-.56-.37-.79-.12-.13-.25-.25-.39-.36-.19-.17-.33-.38-.42-.61-.02-.08-.02-.17,0-.25,0,0,.08-.17.15-.14-.04.09-.04.2,0,.29.05.1.12.18.21.25.26.23.48.49.66.79.15.25.27.52.36.8.03.06.06.12.1.17.06.09.15.15.21.23.08.13.06.3-.06.41h0Z"/><path class="cls-3_coffee-lover-58" d="M157.22,120.08c-1.16.22-1.94.94-1.82,1.61.13.67,1.16,1.03,2.31.81s1.94-.94,1.82-1.61-1.19-1.03-2.31-.81ZM158.97,121.11h-.27c-.09-.02-.18-.02-.27,0-.12,0-.23.08-.36.12s-.59,0-.87.07c-.17.06-.33.14-.47.23-.22.12-.48.17-.73.16-.09.01-.17-.01-.24-.06-.06,0-.13-.14-.08-.19.07.07.17.11.28.1.11-.02.21-.05.3-.1.31-.18.64-.32.98-.42.29-.03.59-.03.88,0h.2c.09-.04.19-.08.29-.12.15-.03.3.05.36.2h0Z"/><path class="cls-10_coffee-lover-58" d="M159.92,115.21c-1.22.68-1.89,1.82-1.48,2.53s1.71.76,2.94.09,1.89-1.82,1.48-2.53c-.41-.72-1.71-.76-2.94-.09ZM162.34,115.74l-.31.1c-.1.02-.21.06-.3.1-.13.07-.24.2-.37.28s-.69.21-.98.39c-.17.14-.32.29-.46.45-.21.22-.48.38-.78.46-.1.03-.21.03-.31,0-.07,0-.2-.12-.16-.2.11.05.24.05.36,0,.12-.06.23-.14.32-.24.28-.32.61-.61.97-.84.32-.16.65-.29,1-.38l.23-.1c.09-.08.19-.16.29-.23.19-.09.42,0,.5.2h0Z"/><path class="cls-41_coffee-lover-58" d="M165.64,112.97c-.61-.97-1.57-1.47-2.15-1.16s-.54,1.45.07,2.42,1.59,1.47,2.15,1.16.53-1.45-.07-2.42ZM165.32,114.97c0-.08-.06-.16-.09-.25-.02-.08-.06-.16-.1-.23-.07-.1-.17-.2-.24-.3s-.21-.56-.37-.78c-.12-.14-.25-.26-.39-.37-.19-.16-.34-.37-.42-.61-.02-.08-.02-.16,0-.24,0-.07.09-.17.15-.15-.04.1-.04.2,0,.3.06.09.13.17.22.24.28.22.53.48.74.76.15.25.27.52.36.8l.09.19c.07.08.15.14.21.22.08.15.03.33-.12.41,0,0-.03.01-.04.02h0-.01Z"/><path class="cls-42_coffee-lover-58" d="M165.93,117.86c-1.16.22-1.93.94-1.81,1.6.13.66,1.16,1.03,2.31.82s1.93-.95,1.81-1.61c-.13-.66-1.18-1.03-2.31-.81ZM167.69,118.89h-.53c-.13,0-.24.09-.37.13s-.59,0-.86,0c-.17.06-.33.14-.49.23-.23.11-.48.17-.73.17-.08,0-.17-.02-.24-.06-.06,0-.13-.14-.08-.2.08.07.17.11.28.12.11-.02.21-.05.31-.1.3-.18.63-.32.97-.42.29-.03.59-.03.88,0h.21c.09-.04.19-.08.29-.12.16-.02.32.08.36.24h0Z"/><path class="cls-39_coffee-lover-58" d="M147.13,116.97c-.75-1.16-1.92-1.78-2.62-1.34s-.66,1.76.08,2.94,1.92,1.78,2.62,1.34.66-1.78-.08-2.94ZM146.74,119.41c0-.1-.07-.21-.12-.31-.03-.1-.07-.2-.13-.29-.08-.13-.21-.23-.3-.36s-.24-.67-.45-.95c-.14-.16-.3-.31-.47-.44-.23-.2-.4-.46-.51-.75-.03-.1-.03-.2,0-.3,0-.08.1-.21.19-.17-.05.11-.05.24,0,.36.06.12.15.22.25.3.34.27.64.58.9.93.18.31.32.63.44.97.03.08.07.15.12.22.08.1.19.17.25.28.1.19.04.43-.16.53h-.02v-.02h.01Z"/><path class="cls-40_coffee-lover-58" d="M147.37,111.29c.35-1.16.1-2.16-.53-2.31s-1.46.51-1.82,1.6-.12,2.15.53,2.31,1.46-.54,1.82-1.6ZM145.61,112.32c.05-.07.1-.15.14-.23.05-.07.09-.15.12-.23,0-.13,0-.25.07-.38s.3-.51.36-.79c.02-.18.02-.36,0-.53,0-.25.08-.5.21-.72.03-.08.09-.14.16-.19h.21c-.1.03-.18.09-.23.19-.03.11-.05.21-.06.32,0,.35-.02.71-.1,1.05-.1.28-.23.54-.38.8,0,0,0,.12-.08.19s0,.21,0,.3c-.04.17-.21.29-.39.25h-.02v-.02h-.01Z"/><path class="cls-35_coffee-lover-58" d="M150.94,115.08c-1.16.22-1.93.94-1.81,1.61.13.67,1.16,1.03,2.31.81,1.16-.22,1.93-.94,1.81-1.61s-1.18-1.03-2.31-.81ZM152.7,116.11h-.28c-.08-.02-.17-.02-.25,0-.13,0-.24.08-.37.12s-.59,0-.86.07c-.17.06-.33.14-.49.23-.22.12-.48.17-.73.16-.09.01-.17-.01-.24-.06-.06,0-.13-.14-.08-.19.07.07.17.11.28.1.11-.02.21-.05.31-.1.3-.18.63-.32.97-.42.29-.03.59-.03.88,0h.21c.09-.04.19-.08.29-.12.15-.03.3.05.36.2h0Z"/><path class="cls-33_coffee-lover-58" d="M152.38,108.56c-.75-1.16-1.92-1.78-2.62-1.34s-.66,1.76.08,2.94,1.92,1.78,2.62,1.34.66-1.76-.08-2.94ZM151.99,111c0-.1-.07-.21-.12-.31-.03-.1-.07-.2-.13-.29-.08-.13-.21-.23-.3-.36s-.24-.67-.45-.95c-.14-.16-.3-.31-.47-.44-.23-.2-.4-.46-.51-.75-.03-.1-.03-.2,0-.3,0-.08.1-.21.19-.17-.05.11-.05.24,0,.36.06.12.15.22.25.3.34.27.64.58.9.93.17.33.3.67.41,1.02.03.08.07.15.12.22.08.1.19.17.25.28.07.17,0,.37-.14.47h0Z"/><path class="cls-34_coffee-lover-58" d="M157.43,107.55c-.62-.97-1.59-1.47-2.15-1.16s-.54,1.45.06,2.42c.6.97,1.59,1.46,2.15,1.16s.54-1.45-.06-2.42ZM157.1,109.56c-.03-.09-.06-.17-.1-.25-.02-.09-.06-.17-.1-.24-.06-.1-.16-.19-.24-.3s-.2-.54-.37-.78c-.12-.13-.25-.25-.39-.36-.19-.17-.33-.39-.42-.62-.03-.08-.03-.16,0-.24,0-.07.08-.17.15-.15-.04.1-.04.2,0,.3.05.09.12.18.21.24.28.22.53.48.74.76.15.25.27.52.36.8.03.06.07.13.1.19.06.08.15.14.21.23.07.16,0,.34-.14.43h-.01Z"/><path class="cls-38_coffee-lover-58" d="M158.48,111.06c-1.16.23-1.94.95-1.82,1.61.13.66,1.16,1.03,2.31.82s1.94-.95,1.82-1.61-1.19-1.03-2.31-.82ZM160.23,112.1h-.53c-.12,0-.24.09-.36.13s-.59,0-.87.06c-.17.06-.33.14-.47.23-.23.11-.48.17-.73.17-.08.02-.16.02-.24,0-.06,0-.14-.14-.08-.2.07.08.17.11.28.1.11,0,.21-.04.3-.1.31-.18.64-.32.98-.42.29-.02.59-.02.88,0,.07.01.13.01.2,0,.1,0,.19-.08.29-.1.13-.05.28,0,.36.13h0Z"/><path class="cls-36_coffee-lover-58" d="M148.19,121.45c-1.16.22-1.93.94-1.81,1.61.13.67,1.16,1.03,2.31.81s1.94-.94,1.81-1.6-1.18-1.03-2.31-.82ZM149.95,122.48h-.28c-.08-.02-.17-.02-.25,0-.13,0-.24.09-.37.12s-.58,0-.86.07c-.17.06-.33.14-.49.23-.22.12-.48.17-.73.16-.08.02-.16.02-.24,0,0,0-.13-.15-.07-.2.07.07.17.11.27.1.11-.01.22-.05.31-.1.31-.18.64-.32.98-.42.29-.02.58-.02.87,0h.21c.09-.04.19-.08.29-.12.14-.04.29.03.36.15h0Z"/><path class="cls-37_coffee-lover-58" d="M162.17,106.88c-1.16.22-1.94.94-1.81,1.6s1.16,1.04,2.31.82,1.93-.94,1.81-1.61c-.13-.67-1.16-1.03-2.31-.81ZM163.93,107.91h-.28c-.08-.01-.17-.01-.25,0l-.37.13c-.28.08-.59,0-.86.07-.17.06-.33.14-.49.23-.22.12-.48.17-.73.16-.08.03-.16.03-.24,0-.06,0-.13-.14-.08-.19.07.07.17.11.28.1.11-.02.21-.05.31-.1.3-.18.63-.32.97-.42.29-.03.59-.03.88,0h.21c.09-.04.19-.08.29-.12.14-.06.31,0,.39.13h-.03Z"/><path class="cls-43_coffee-lover-58" d="M164.75,130.16c-1.16.22-1.93.94-1.81,1.6s1.16,1.03,2.31.82,1.93-.95,1.81-1.61c-.13-.66-1.18-1.03-2.31-.81h0ZM166.51,131.19h-.53c-.13,0-.24.09-.37.13s-.59,0-.86,0c-.17.06-.33.14-.49.23-.23.11-.48.17-.73.17-.08.02-.16.02-.24,0-.06,0-.13-.14-.08-.2.07.07.17.11.28.1.11,0,.22-.04.31-.1.31-.18.63-.32.97-.42.29-.02.59-.02.88,0,.07,0,.14,0,.21,0,.1,0,.19-.08.29-.1.15-.03.3.04.36.19Z"/><path class="cls-1_coffee-lover-58" d="M152.64,130.31c0-.1-.07-.21-.12-.31-.03-.1-.07-.2-.13-.29-.08-.13-.21-.23-.3-.36s-.24-.67-.45-.95c-.14-.16-.3-.31-.47-.44-.23-.2-.4-.46-.51-.75-.03-.1-.03-.2,0-.3,0-.08.1-.21.19-.17-.05.11-.05.24,0,.36.06.12.15.22.25.3.34.27.64.58.9.93.18.31.32.63.44.97.03.08.07.15.12.22.08.1.19.17.25.28.09.19.02.42-.17.52h0Z"/></g></svg>